HIERARCHY
ROOT Model
{
	OFFSET 0.000000 0.000000 0.000000 
	CHANNELS 6 Xposition Yposition Zposition Zrotation Xrotation Yrotation
	JOINT Model1
	{
		OFFSET 0.000000 -0.563698 0.748460 
		CHANNELS 3 Zrotation Xrotation Yrotation
		JOINT Model2
		{
			OFFSET 3.027750 0.000000 0.000000 
			CHANNELS 3 Zrotation Xrotation Yrotation
			JOINT Model3
			{
				OFFSET 2.887550 0.000000 0.000000 
				CHANNELS 3 Zrotation Xrotation Yrotation
				JOINT Model4
				{
					OFFSET 2.945250 0.000000 0.000000 
					CHANNELS 3 Zrotation Xrotation Yrotation
					JOINT Model5
					{
						OFFSET 5.015025 0.000000 0.000000 
						CHANNELS 3 Zrotation Xrotation Yrotation
						JOINT Model6
						{
							OFFSET 2.799050 0.000000 0.000000 
							CHANNELS 3 Zrotation Xrotation Yrotation
							End Site
							{
								OFFSET 0.000000 0.000000 0.000000 
							}
						}
					}
					JOINT Model7
					{
						OFFSET 2.705575 0.104383 0.877785 
						CHANNELS 3 Zrotation Xrotation Yrotation
						JOINT Model8
						{
							OFFSET -1.519858 0.000000 0.000000 
							CHANNELS 3 Zrotation Xrotation Yrotation
							JOINT Model9
							{
								OFFSET -0.069353 2.597500 -0.012810 
								CHANNELS 3 Zrotation Xrotation Yrotation
								JOINT Model10
								{
									OFFSET -0.859775 -0.070511 0.466695 
									CHANNELS 3 Zrotation Xrotation Yrotation
									JOINT Model11
									{
										OFFSET 3.256725 0.000000 0.000000 
										CHANNELS 3 Zrotation Xrotation Yrotation
										JOINT Model12
										{
											OFFSET 2.721650 0.000000 0.000000 
											CHANNELS 3 Zrotation Xrotation Yrotation
											JOINT Model13
											{
												OFFSET 4.182925 0.000000 0.000000 
												CHANNELS 3 Zrotation Xrotation Yrotation
												JOINT Model14
												{
													OFFSET 2.957300 0.000000 0.000000 
													CHANNELS 3 Zrotation Xrotation Yrotation
													JOINT Model15
													{
														OFFSET 1.206877 -0.933915 -0.209129 
														CHANNELS 3 Zrotation Xrotation Yrotation
														JOINT Model16
														{
															OFFSET 0.938277 -0.014572 -0.004662 
															CHANNELS 3 Zrotation Xrotation Yrotation
															JOINT Model17
															{
																OFFSET 0.721722 0.004808 0.003700 
																CHANNELS 3 Zrotation Xrotation Yrotation
																End Site
																{
																	OFFSET 0.000000 0.000000 0.000000 
																}
															}
														}
													}
													JOINT Model18
													{
														OFFSET 2.430492 -0.766145 0.059692 
														CHANNELS 3 Zrotation Xrotation Yrotation
														JOINT Model19
														{
															OFFSET 1.152828 0.000000 0.000000 
															CHANNELS 3 Zrotation Xrotation Yrotation
															JOINT Model20
															{
																OFFSET 0.724225 -0.000002 0.000000 
																CHANNELS 3 Zrotation Xrotation Yrotation
																End Site
																{
																	OFFSET 0.000000 0.000000 0.000000 
																}
															}
														}
													}
													JOINT Model21
													{
														OFFSET 2.386077 -0.186266 0.147236 
														CHANNELS 3 Zrotation Xrotation Yrotation
														JOINT Model22
														{
															OFFSET 1.334945 0.000000 0.000000 
															CHANNELS 3 Zrotation Xrotation Yrotation
															JOINT Model23
															{
																OFFSET 0.759048 0.000002 0.000000 
																CHANNELS 3 Zrotation Xrotation Yrotation
																End Site
																{
																	OFFSET 0.000000 0.000000 0.000000 
																}
															}
														}
													}
													JOINT Model24
													{
														OFFSET 2.369395 0.378215 0.121281 
														CHANNELS 3 Zrotation Xrotation Yrotation
														JOINT Model25
														{
															OFFSET 1.240340 0.000002 0.000000 
															CHANNELS 3 Zrotation Xrotation Yrotation
															JOINT Model26
															{
																OFFSET 0.629912 0.000000 0.000000 
																CHANNELS 3 Zrotation Xrotation Yrotation
																End Site
																{
																	OFFSET 0.000000 0.000000 0.000000 
																}
															}
														}
													}
													JOINT Model27
													{
														OFFSET 2.335618 0.835293 -0.059818 
														CHANNELS 3 Zrotation Xrotation Yrotation
														JOINT Model28
														{
															OFFSET 0.820647 0.000006 0.000000 
															CHANNELS 3 Zrotation Xrotation Yrotation
															JOINT Model29
															{
																OFFSET 0.532300 0.000000 0.000000 
																CHANNELS 3 Zrotation Xrotation Yrotation
																End Site
																{
																	OFFSET 0.000000 0.000000 0.000000 
																}
															}
														}
													}
												}
											}
										}
									}
								}
							}
						}
					}
					JOINT Model30
					{
						OFFSET 2.705575 0.104475 -0.877765 
						CHANNELS 3 Zrotation Xrotation Yrotation
						JOINT Model31
						{
							OFFSET 1.519858 0.000000 0.000000 
							CHANNELS 3 Zrotation Xrotation Yrotation
							JOINT Model32
							{
								OFFSET 0.069353 -2.597500 0.012810 
								CHANNELS 3 Zrotation Xrotation Yrotation
								JOINT Model33
								{
									OFFSET 0.859775 0.070511 -0.466695 
									CHANNELS 3 Zrotation Xrotation Yrotation
									JOINT Model34
									{
										OFFSET -3.256725 0.000000 0.000000 
										CHANNELS 3 Zrotation Xrotation Yrotation
										JOINT Model35
										{
											OFFSET -2.721650 0.000000 0.000000 
											CHANNELS 3 Zrotation Xrotation Yrotation
											JOINT Model36
											{
												OFFSET -4.182925 0.000000 0.000000 
												CHANNELS 3 Zrotation Xrotation Yrotation
												JOINT Model37
												{
													OFFSET -2.957300 0.000000 0.000000 
													CHANNELS 3 Zrotation Xrotation Yrotation
													JOINT Model38
													{
														OFFSET -1.206877 0.933915 0.209129 
														CHANNELS 3 Zrotation Xrotation Yrotation
														JOINT Model39
														{
															OFFSET -0.938277 0.014572 0.004662 
															CHANNELS 3 Zrotation Xrotation Yrotation
															JOINT Model40
															{
																OFFSET -0.721720 -0.004808 -0.003700 
																CHANNELS 3 Zrotation Xrotation Yrotation
																End Site
																{
																	OFFSET 0.000000 0.000000 0.000000 
																}
															}
														}
													}
													JOINT Model41
													{
														OFFSET -2.430492 0.766147 -0.059692 
														CHANNELS 3 Zrotation Xrotation Yrotation
														JOINT Model42
														{
															OFFSET -1.152825 0.000000 0.000000 
															CHANNELS 3 Zrotation Xrotation Yrotation
															JOINT Model43
															{
																OFFSET -0.724225 0.000000 0.000000 
																CHANNELS 3 Zrotation Xrotation Yrotation
																End Site
																{
																	OFFSET 0.000000 0.000000 0.000000 
																}
															}
														}
													}
													JOINT Model44
													{
														OFFSET -2.386075 0.186266 -0.147236 
														CHANNELS 3 Zrotation Xrotation Yrotation
														JOINT Model45
														{
															OFFSET -1.334945 0.000000 0.000000 
															CHANNELS 3 Zrotation Xrotation Yrotation
															JOINT Model46
															{
																OFFSET -0.759048 -0.000004 0.000000 
																CHANNELS 3 Zrotation Xrotation Yrotation
																End Site
																{
																	OFFSET 0.000000 0.000000 0.000000 
																}
															}
														}
													}
													JOINT Model47
													{
														OFFSET -2.369397 -0.378215 -0.121281 
														CHANNELS 3 Zrotation Xrotation Yrotation
														JOINT Model48
														{
															OFFSET -1.240340 -0.000004 0.000000 
															CHANNELS 3 Zrotation Xrotation Yrotation
															JOINT Model49
															{
																OFFSET -0.629915 0.000000 0.000000 
																CHANNELS 3 Zrotation Xrotation Yrotation
																End Site
																{
																	OFFSET 0.000000 0.000000 0.000000 
																}
															}
														}
													}
													JOINT Model50
													{
														OFFSET -2.335615 -0.835295 0.059818 
														CHANNELS 3 Zrotation Xrotation Yrotation
														JOINT Model51
														{
															OFFSET -0.820650 -0.000006 0.000000 
															CHANNELS 3 Zrotation Xrotation Yrotation
															JOINT Model52
															{
																OFFSET -0.532300 0.000000 0.000000 
																CHANNELS 3 Zrotation Xrotation Yrotation
																End Site
																{
																	OFFSET 0.000000 0.000000 0.000000 
																}
															}
														}
													}
												}
											}
										}
									}
								}
							}
						}
					}
				}
			}
		}
	}
	JOINT Model53
	{
		OFFSET 1.095065 -0.536580 -0.278790 
		CHANNELS 3 Zrotation Xrotation Yrotation
		JOINT Model54
		{
			OFFSET 0.000000 0.000000 1.237500 
			CHANNELS 3 Zrotation Xrotation Yrotation
			JOINT Model55
			{
				OFFSET 4.641050 0.000000 0.000000 
				CHANNELS 3 Zrotation Xrotation Yrotation
				JOINT Model56
				{
					OFFSET 5.322100 0.000000 0.000004 
					CHANNELS 3 Zrotation Xrotation Yrotation
					JOINT Model57
					{
						OFFSET 7.565250 0.000000 0.000000 
						CHANNELS 3 Zrotation Xrotation Yrotation
						JOINT Model58
						{
							OFFSET 2.931475 0.000000 0.000000 
							CHANNELS 3 Zrotation Xrotation Yrotation
							JOINT Model59
							{
								OFFSET 2.670500 0.000000 0.000000 
								CHANNELS 3 Zrotation Xrotation Yrotation
								End Site
								{
									OFFSET 0.000000 0.000000 0.000000 
								}
							}
						}
					}
				}
			}
		}
	}
	JOINT Model60
	{
		OFFSET -1.095065 -0.536580 -0.278790 
		CHANNELS 3 Zrotation Xrotation Yrotation
		JOINT Model61
		{
			OFFSET 0.000000 0.000000 -1.237500 
			CHANNELS 3 Zrotation Xrotation Yrotation
			JOINT Model62
			{
				OFFSET -4.641050 0.000000 0.000000 
				CHANNELS 3 Zrotation Xrotation Yrotation
				JOINT Model63
				{
					OFFSET -5.322100 0.000000 -0.000004 
					CHANNELS 3 Zrotation Xrotation Yrotation
					JOINT Model64
					{
						OFFSET -7.565250 0.000000 0.000000 
						CHANNELS 3 Zrotation Xrotation Yrotation
						JOINT Model65
						{
							OFFSET -2.931475 0.000000 0.000000 
							CHANNELS 3 Zrotation Xrotation Yrotation
							JOINT Model66
							{
								OFFSET -2.670500 0.000000 0.000000 
								CHANNELS 3 Zrotation Xrotation Yrotation
								End Site
								{
									OFFSET 0.000000 0.000000 0.000000 
								}
							}
						}
					}
				}
			}
		}
	}
}
MOTION
Frames: 4
Frame Time: 0.033333
-9.199803 7.418743 0.361009 111.306007 -10.828790 81.804291 -180.000000 0.000000 -90.000000 6.205710 1.231770 -3.351350 12.475900 2.091590 -6.817960 12.475900 2.092020 -6.818050 6.992590 15.642500 -6.774780 -51.349800 7.169960 12.979100 120.092003 75.534302 58.493900 0.781435 -3.412390 -0.862648 -167.276993 84.499901 48.810902 98.377296 6.580510 9.030440 -0.000003 30.709900 0.000037 -17.943600 5.552120 0.609661 0.000001 8.022300 0.000001 -10.349400 1.051980 -11.585900 -72.064796 39.038502 39.339699 33.363800 2.103620 14.835000 0.588947 0.308273 6.352870 -99.640900 81.413002 100.349998 -0.018141 0.000028 -0.117315 -0.124139 0.002411 -0.799296 -79.838203 79.577301 80.537399 -0.000226 -0.000221 0.000022 -0.000956 0.000123 -0.000027 -66.741600 80.405800 67.217102 -0.000437 0.000016 -0.000027 -0.000137 -0.000109 -0.000055 -6.421590 81.215797 8.017790 -0.000219 0.000017 0.000212 0.000902 -0.000185 -0.000219 -59.928200 75.537300 58.514702 -2.825640 11.184900 4.518920 -167.276993 84.499901 48.810902 166.960007 -6.848560 12.241900 0.000002 8.966280 0.000031 -77.386398 22.738001 0.643797 -0.000016 33.528400 0.000009 -9.023440 1.049810 -13.245400 -72.064796 39.038502 39.339699 33.363800 2.103610 14.835000 0.588946 0.308273 6.352870 -99.640900 81.413002 100.349998 -0.018141 0.000030 -0.117315 -0.124139 0.002411 -0.799296 -79.838203 79.577301 80.537399 -0.000261 -0.000219 0.000024 -0.000956 0.000123 -0.000027 -66.741600 80.405800 67.217102 -0.000437 0.000015 -0.000027 -0.000137 -0.000109 -0.000055 -6.421590 81.215797 8.017790 -0.000219 0.000020 0.000212 0.000902 -0.000191 -0.000219 0.000811 0.566610 89.910004 -93.052101 10.002100 -41.215801 -0.000001 -3.687160 -0.000000 117.460999 2.173800 -0.007398 0.000000 3.153940 0.000000 -52.921398 3.731760 -3.061200 -35.494701 0.000001 -0.000001 -180.000000 -0.566579 -90.089996 -110.640999 14.350800 -15.546800 0.000004 10.902700 -0.000000 125.094002 -6.044140 -0.006516 0.000000 -9.164300 -0.000001 -57.078499 7.343910 -5.455930 -35.494701 0.000001 0.000000 
-9.204902 7.418493 0.351758 111.251007 -10.750791 81.848396 -180.000000 0.000000 -90.000000 6.148400 1.204680 -3.291610 12.358700 2.047500 -6.694940 12.358700 2.047930 -6.695030 7.792110 15.700800 -6.796350 -51.327599 7.656700 12.389300 120.092003 75.534302 58.493900 1.216900 -3.043250 -0.810141 -167.276993 84.499901 48.810902 99.513100 6.070090 9.977530 -0.000003 30.585501 0.000037 -17.604200 5.863910 -0.763350 0.000001 8.494130 0.000001 -10.499000 1.215280 -13.178500 -72.064796 39.038502 39.339699 33.363800 2.103620 14.835000 0.588947 0.308273 6.352870 -99.640900 81.413002 100.349998 -0.018141 0.000028 -0.117315 -0.124139 0.002411 -0.799296 -79.838203 79.577301 80.537399 -0.000226 -0.000221 0.000022 -0.000956 0.000123 -0.000027 -66.741600 80.405800 67.217102 -0.000437 0.000016 -0.000027 -0.000137 -0.000109 -0.000055 -6.421590 81.215797 8.017790 -0.000219 0.000017 0.000212 0.000902 -0.000185 -0.000219 -59.928200 75.537300 58.514702 -3.289210 10.654900 4.471280 -167.276993 84.499901 48.810902 166.414993 -6.762920 12.402700 0.000002 9.080270 0.000031 -77.290100 22.598801 0.642910 -0.000016 33.318802 0.000009 -9.071040 1.018130 -12.782400 -72.064796 39.038502 39.339699 33.363800 2.103610 14.835000 0.588946 0.308273 6.352870 -99.640900 81.413002 100.349998 -0.018141 0.000030 -0.117315 -0.124139 0.002411 -0.799296 -79.838203 79.577301 80.537399 -0.000261 -0.000219 0.000024 -0.000956 0.000123 -0.000027 -66.741600 80.405800 67.217102 -0.000437 0.000015 -0.000027 -0.000137 -0.000109 -0.000055 -6.421590 81.215797 8.017790 -0.000219 0.000020 0.000212 0.000902 -0.000191 -0.000219 0.000811 0.566610 89.910004 -93.231400 10.020500 -41.029400 -0.000001 -3.675540 -0.000000 117.513000 2.089730 -0.007398 0.000000 3.027880 0.000000 -52.912998 3.884390 -3.171990 -35.494701 0.000001 -0.000001 -180.000000 -0.566579 -90.089996 -110.601997 14.398500 -15.721200 0.000004 10.861800 -0.000000 125.030998 -6.042210 -0.006516 0.000000 -9.161480 -0.000001 -57.099499 7.063380 -5.265810 -35.494701 0.000001 0.000000 
-9.198953 7.408992 0.346257 111.527008 -10.850289 82.007690 -180.000000 0.000000 -90.000000 6.152170 1.207690 -3.161900 12.364600 2.067390 -6.436650 12.364600 2.067820 -6.436740 8.897570 15.428100 -9.372400 -51.465199 6.333900 13.534600 120.092003 75.534302 58.493900 -0.088806 -2.787110 -0.542699 -167.276993 84.499901 48.810902 101.154999 5.564650 10.033200 -0.000002 29.833200 0.000036 -18.408899 6.423710 -0.951039 0.000001 9.319760 0.000001 -11.074400 1.612910 -16.496300 -72.064796 39.038502 39.339699 33.363800 2.103620 14.835000 0.588947 0.308273 6.352870 -99.640900 81.413002 100.349998 -0.018141 0.000028 -0.117315 -0.124139 0.002411 -0.799296 -79.838203 79.577301 80.537399 -0.000226 -0.000221 0.000022 -0.000956 0.000123 -0.000027 -66.741600 80.405800 67.217102 -0.000437 0.000016 -0.000027 -0.000137 -0.000109 -0.000055 -6.421590 81.215797 8.017790 -0.000219 0.000017 0.000212 0.000902 -0.000185 -0.000219 -59.928200 75.537300 58.514702 -4.139340 10.652600 4.705060 -167.276993 84.499901 48.810902 166.619003 -6.919360 11.995800 0.000002 8.939680 0.000031 -77.900398 22.576300 0.644327 -0.000016 33.290699 0.000009 -9.039390 0.951213 -11.985400 -72.064796 39.038502 39.339699 33.363800 2.103610 14.835000 0.588946 0.308273 6.352870 -99.640900 81.413002 100.349998 -0.018141 0.000030 -0.117315 -0.124139 0.002411 -0.799296 -79.838203 79.577301 80.537399 -0.000261 -0.000219 0.000024 -0.000956 0.000123 -0.000027 -66.741600 80.405800 67.217102 -0.000437 0.000015 -0.000027 -0.000137 -0.000109 -0.000055 -6.421590 81.215797 8.017790 -0.000219 0.000020 0.000212 0.000902 -0.000191 -0.000219 0.000811 0.566610 89.910004 -93.084999 10.020700 -41.126499 -0.000001 -3.633750 -0.000000 117.621002 2.027880 -0.007397 0.000000 2.935230 0.000000 -52.975201 3.975560 -3.237480 -35.494701 0.000001 -0.000001 -180.000000 -0.566579 -90.089996 -110.378998 14.344900 -15.757500 0.000004 10.809200 -0.000000 125.061996 -6.085050 -0.006517 0.000000 -9.225700 -0.000001 -57.373699 6.823740 -5.091310 -35.494701 0.000001 0.000000 
-9.200353 7.394243 0.341508 111.924011 -11.084088 82.105194 -180.000000 0.000000 -90.000000 6.227990 1.213630 -3.102160 12.515600 2.081370 -6.319260 12.515600 2.081800 -6.319350 8.910390 15.183600 -11.636000 -51.184898 4.823040 15.104400 120.092003 75.534302 58.493900 -0.984701 -3.041370 -0.494589 -167.276993 84.499901 48.810902 102.434998 5.001420 9.004740 -0.000001 28.284901 0.000036 -21.082800 6.500840 0.498875 0.000001 9.391820 0.000001 -11.860300 2.101700 -20.037100 -72.064796 39.038502 39.339699 33.363800 2.103620 14.835000 0.588947 0.308273 6.352870 -99.640900 81.413002 100.349998 -0.018141 0.000028 -0.117315 -0.124139 0.002411 -0.799296 -79.838203 79.577301 80.537399 -0.000226 -0.000221 0.000022 -0.000956 0.000123 -0.000027 -66.741600 80.405800 67.217102 -0.000437 0.000016 -0.000027 -0.000137 -0.000109 -0.000055 -6.421590 81.215797 8.017790 -0.000219 0.000017 0.000212 0.000902 -0.000185 -0.000219 -59.928200 75.537300 58.514702 -4.805980 10.830000 4.949930 -167.276993 84.499901 48.810902 166.789001 -7.148020 11.447000 0.000002 8.727600 0.000031 -78.602203 22.619200 0.646228 -0.000016 33.361900 0.000009 -9.234120 0.917085 -11.320000 -72.064796 39.038502 39.339699 33.363800 2.103610 14.835000 0.588946 0.308273 6.352870 -99.640900 81.413002 100.349998 -0.018141 0.000030 -0.117315 -0.124139 0.002411 -0.799296 -79.838203 79.577301 80.537399 -0.000261 -0.000219 0.000024 -0.000956 0.000123 -0.000027 -66.741600 80.405800 67.217102 -0.000437 0.000015 -0.000027 -0.000137 -0.000109 -0.000055 -6.421590 81.215797 8.017790 -0.000219 0.000020 0.000212 0.000902 -0.000191 -0.000219 0.000811 0.566610 89.910004 -92.764603 9.964750 -41.216000 -0.000001 -3.566670 -0.000000 117.702003 1.924640 -0.007397 0.000000 2.780470 0.000000 -53.065701 3.986620 -3.244360 -35.494701 0.000001 -0.000001 -180.000000 -0.566579 -90.089996 -110.266998 14.261800 -15.652500 0.000004 10.784100 -0.000000 125.124001 -6.120950 -0.006517 0.000000 -9.279480 -0.000001 -57.481201 6.705710 -5.007020 -35.494701 0.000001 0.000000 
